{
	"asset":{
		"generator":"Khronos glTF Blender I/O v4.2.69",
		"version":"2.0"
	},
	"extensionsUsed":[
		"KHR_materials_anisotropy",
		"EXT_texture_webp"
	],
	"extensionsRequired":[
		"EXT_texture_webp"
	],
	"scene":0,
	"scenes":[
		{
			"name":"Scene",
			"nodes":[
				5
			]
		}
	],
	"nodes":[
		{
			"mesh":0,
			"name":"Thrusters",
			"scale":[
				0.9967309832572937,
				0.9967309832572937,
				0.9967309832572937
			],
			"translation":[
				2.485081911087036,
				0.23821184039115906,
				0
			]
		},
		{
			"mesh":1,
			"name":"Turbine_B_Left",
			"scale":[
				0.2844187021255493,
				0.2844187021255493,
				0.2844187021255493
			],
			"translation":[
				1.171678066253662,
				-0.3519839644432068,
				-1.266448974609375
			]
		},
		{
			"mesh":2,
			"name":"Turbine_B_Right",
			"scale":[
				0.2844187021255493,
				0.2844187021255493,
				0.2844187021255493
			],
			"translation":[
				1.2271167039871216,
				-0.3308267593383789,
				1.258447527885437
			]
		},
		{
			"mesh":3,
			"name":"Turbine_F_Left",
			"scale":[
				0.2844187021255493,
				0.2844187021255493,
				0.2844187021255493
			],
			"translation":[
				-0.9460511207580566,
				-0.3519839644432068,
				-1.266448974609375
			]
		},
		{
			"mesh":2,
			"name":"Turbine_F_Right",
			"scale":[
				0.2844187021255493,
				0.2844187021255493,
				0.2844187021255493
			],
			"translation":[
				-0.9460511207580566,
				-0.3519839644432068,
				1.2608765363693237
			]
		},
		{
			"children":[
				0,
				1,
				2,
				3,
				4
			],
			"mesh":4,
			"name":"Main_Body"
		}
	],
	"animations":[
		{
			"channels":[
				{
					"sampler":0,
					"target":{
						"node":1,
						"path":"rotation"
					}
				}
			],
			"name":"TurbineBackLeft",
			"samplers":[
				{
					"input":49,
					"interpolation":"LINEAR",
					"output":50
				}
			]
		},
		{
			"channels":[
				{
					"sampler":0,
					"target":{
						"node":2,
						"path":"rotation"
					}
				}
			],
			"name":"TurbineBackLeft",
			"samplers":[
				{
					"input":49,
					"interpolation":"LINEAR",
					"output":51
				}
			]
		},
		{
			"channels":[
				{
					"sampler":0,
					"target":{
						"node":3,
						"path":"rotation"
					}
				}
			],
			"name":"TurbineBackLeft",
			"samplers":[
				{
					"input":49,
					"interpolation":"LINEAR",
					"output":52
				}
			]
		},
		{
			"channels":[
				{
					"sampler":0,
					"target":{
						"node":4,
						"path":"rotation"
					}
				}
			],
			"name":"TurbineBackLeft",
			"samplers":[
				{
					"input":49,
					"interpolation":"LINEAR",
					"output":53
				}
			]
		}
	],
	"materials":[
		{
			"doubleSided":true,
			"name":"Thrusters",
			"normalTexture":{
				"index":0
			},
			"pbrMetallicRoughness":{
				"baseColorTexture":{
					"index":1
				},
				"metallicRoughnessTexture":{
					"index":2
				}
			}
		},
		{
			"doubleSided":true,
			"name":"Black",
			"pbrMetallicRoughness":{
				"baseColorFactor":[
					0,
					0,
					0,
					1
				],
				"metallicFactor":0,
				"roughnessFactor":0.5
			}
		},
		{
			"doubleSided":true,
			"emissiveFactor":[
				1,
				1,
				1
			],
			"extensions":{
				"KHR_materials_anisotropy":{
					"anisotropyStrength":0.19939599931240082
				}
			},
			"name":"Blue_Emission",
			"pbrMetallicRoughness":{
				"metallicFactor":0,
				"roughnessFactor":0
			}
		},
		{
			"doubleSided":true,
			"name":"ShipMat",
			"normalTexture":{
				"index":3
			},
			"pbrMetallicRoughness":{
				"baseColorTexture":{
					"index":4
				},
				"metallicRoughnessTexture":{
					"index":5
				}
			}
		},
		{
			"doubleSided":true,
			"emissiveFactor":[
				0.6999998092651367,
				0.6524668584640949,
				0.5214493761200174
			],
			"name":"Glass",
			"pbrMetallicRoughness":{
				"baseColorFactor":[
					0.800000011920929,
					0.800000011920929,
					0.800000011920929,
					1
				],
				"roughnessFactor":0.5
			}
		}
	],
	"meshes":[
		{
			"name":"Cube.003",
			"primitives":[
				{
					"attributes":{
						"POSITION":0,
						"NORMAL":1,
						"TEXCOORD_0":2
					},
					"indices":3,
					"material":0
				},
				{
					"attributes":{
						"POSITION":4,
						"NORMAL":5,
						"TEXCOORD_0":6
					},
					"indices":7,
					"material":1
				},
				{
					"attributes":{
						"POSITION":8,
						"NORMAL":9,
						"TEXCOORD_0":10
					},
					"indices":11,
					"material":2
				}
			]
		},
		{
			"name":"Cylinder.001",
			"primitives":[
				{
					"attributes":{
						"POSITION":12,
						"NORMAL":13,
						"TEXCOORD_0":14
					},
					"indices":15,
					"material":3
				},
				{
					"attributes":{
						"POSITION":16,
						"NORMAL":17,
						"TEXCOORD_0":18
					},
					"indices":19,
					"material":1
				}
			]
		},
		{
			"name":"Cylinder",
			"primitives":[
				{
					"attributes":{
						"POSITION":20,
						"NORMAL":21,
						"TEXCOORD_0":22
					},
					"indices":23,
					"material":3
				},
				{
					"attributes":{
						"POSITION":24,
						"NORMAL":25,
						"TEXCOORD_0":26
					},
					"indices":19,
					"material":1
				}
			]
		},
		{
			"name":"Cylinder.002",
			"primitives":[
				{
					"attributes":{
						"POSITION":27,
						"NORMAL":28,
						"TEXCOORD_0":29
					},
					"indices":15,
					"material":3
				},
				{
					"attributes":{
						"POSITION":30,
						"NORMAL":31,
						"TEXCOORD_0":32
					},
					"indices":19,
					"material":1
				}
			]
		},
		{
			"name":"Cube.002",
			"primitives":[
				{
					"attributes":{
						"POSITION":33,
						"NORMAL":34,
						"TEXCOORD_0":35
					},
					"indices":36,
					"material":3
				},
				{
					"attributes":{
						"POSITION":37,
						"NORMAL":38,
						"TEXCOORD_0":39
					},
					"indices":40,
					"material":1
				},
				{
					"attributes":{
						"POSITION":41,
						"NORMAL":42,
						"TEXCOORD_0":43
					},
					"indices":44,
					"material":4
				},
				{
					"attributes":{
						"POSITION":45,
						"NORMAL":46,
						"TEXCOORD_0":47
					},
					"indices":48,
					"material":2
				}
			]
		}
	],
	"textures":[
		{
			"extensions":{
				"EXT_texture_webp":{
					"source":0
				}
			},
			"sampler":0
		},
		{
			"extensions":{
				"EXT_texture_webp":{
					"source":1
				}
			},
			"sampler":0
		},
		{
			"extensions":{
				"EXT_texture_webp":{
					"source":2
				}
			},
			"sampler":0
		},
		{
			"extensions":{
				"EXT_texture_webp":{
					"source":3
				}
			},
			"sampler":0
		},
		{
			"extensions":{
				"EXT_texture_webp":{
					"source":4
				}
			},
			"sampler":0
		},
		{
			"extensions":{
				"EXT_texture_webp":{
					"source":5
				}
			},
			"sampler":0
		}
	],
	"images":[
		{
			"mimeType":"image/webp",
			"name":"Thrusters_Normal.tga",
			"uri":"Final/Materials/Thrusters_Normal_tga.webp"
		},
		{
			"mimeType":"image/webp",
			"name":"Thrusters_Albedo.tga",
			"uri":"Final/Materials/Thrusters_Albedo_tga.webp"
		},
		{
			"mimeType":"image/webp",
			"name":"Thrusters_Metallic.tga",
			"uri":"Final/Materials/Thrusters_Metallic_tga.webp"
		},
		{
			"mimeType":"image/webp",
			"name":"Ship_Normal",
			"uri":"Final/Materials/Ship_Normal.webp"
		},
		{
			"mimeType":"image/webp",
			"name":"Ship_Albedo",
			"uri":"Final/Materials/Ship_Albedo.webp"
		},
		{
			"mimeType":"image/webp",
			"name":"Ship_Metallic",
			"uri":"Final/Materials/Ship_Metallic.webp"
		}
	],
	"accessors":[
		{
			"bufferView":0,
			"componentType":5126,
			"count":1052,
			"max":[
				1.7442195415496826,
				0.8004688620567322,
				1.5751949548721313
			],
			"min":[
				-0.6791886687278748,
				-0.7650129199028015,
				-1.5751949548721313
			],
			"type":"VEC3"
		},
		{
			"bufferView":1,
			"componentType":5126,
			"count":1052,
			"type":"VEC3"
		},
		{
			"bufferView":2,
			"componentType":5126,
			"count":1052,
			"type":"VEC2"
		},
		{
			"bufferView":3,
			"componentType":5123,
			"count":2592,
			"type":"SCALAR"
		},
		{
			"bufferView":4,
			"componentType":5126,
			"count":48,
			"max":[
				-0.6609672904014587,
				-0.4622388482093811,
				1.4293475151062012
			],
			"min":[
				-0.6609672904014587,
				-0.6084339618682861,
				-1.4293475151062012
			],
			"type":"VEC3"
		},
		{
			"bufferView":5,
			"componentType":5126,
			"count":48,
			"type":"VEC3"
		},
		{
			"bufferView":6,
			"componentType":5126,
			"count":48,
			"type":"VEC2"
		},
		{
			"bufferView":7,
			"componentType":5123,
			"count":132,
			"type":"SCALAR"
		},
		{
			"bufferView":8,
			"componentType":5126,
			"count":52,
			"max":[
				1.690260648727417,
				0.7670440077781677,
				1.5271750688552856
			],
			"min":[
				-0.6235169172286987,
				-0.6768033504486084,
				-1.5271750688552856
			],
			"type":"VEC3"
		},
		{
			"bufferView":9,
			"componentType":5126,
			"count":52,
			"type":"VEC3"
		},
		{
			"bufferView":10,
			"componentType":5126,
			"count":52,
			"type":"VEC2"
		},
		{
			"bufferView":11,
			"componentType":5123,
			"count":120,
			"type":"SCALAR"
		},
		{
			"bufferView":12,
			"componentType":5126,
			"count":1793,
			"max":[
				1.064400553703308,
				0.30768269300460815,
				1.0685209035873413
			],
			"min":[
				-1.0723048448562622,
				-2.2707724571228027,
				-1.0685209035873413
			],
			"type":"VEC3"
		},
		{
			"bufferView":13,
			"componentType":5126,
			"count":1793,
			"type":"VEC3"
		},
		{
			"bufferView":14,
			"componentType":5126,
			"count":1793,
			"type":"VEC2"
		},
		{
			"bufferView":15,
			"componentType":5123,
			"count":6330,
			"type":"SCALAR"
		},
		{
			"bufferView":16,
			"componentType":5126,
			"count":64,
			"max":[
				0.8258119821548462,
				-0.09334149956703186,
				0.8278594613075256
			],
			"min":[
				-0.8296463489532471,
				-0.12272009253501892,
				-0.8278594613075256
			],
			"type":"VEC3"
		},
		{
			"bufferView":17,
			"componentType":5126,
			"count":64,
			"type":"VEC3"
		},
		{
			"bufferView":18,
			"componentType":5126,
			"count":64,
			"type":"VEC2"
		},
		{
			"bufferView":19,
			"componentType":5123,
			"count":192,
			"type":"SCALAR"
		},
		{
			"bufferView":20,
			"componentType":5126,
			"count":1793,
			"max":[
				1.0685210227966309,
				0.306780070066452,
				1.0685210227966309
			],
			"min":[
				-1.0685210227966309,
				-2.271130084991455,
				-1.0685210227966309
			],
			"type":"VEC3"
		},
		{
			"bufferView":21,
			"componentType":5126,
			"count":1793,
			"type":"VEC3"
		},
		{
			"bufferView":22,
			"componentType":5126,
			"count":1793,
			"type":"VEC2"
		},
		{
			"bufferView":23,
			"componentType":5123,
			"count":6330,
			"type":"SCALAR"
		},
		{
			"bufferView":24,
			"componentType":5126,
			"count":64,
			"max":[
				0.8278595209121704,
				-0.10804780572652817,
				0.8278595209121704
			],
			"min":[
				-0.8278595209121704,
				-0.10804782062768936,
				-0.8278595209121704
			],
			"type":"VEC3"
		},
		{
			"bufferView":25,
			"componentType":5126,
			"count":64,
			"type":"VEC3"
		},
		{
			"bufferView":26,
			"componentType":5126,
			"count":64,
			"type":"VEC2"
		},
		{
			"bufferView":27,
			"componentType":5126,
			"count":1793,
			"max":[
				1.064400553703308,
				0.30768269300460815,
				1.0685209035873413
			],
			"min":[
				-1.0723048448562622,
				-2.2707724571228027,
				-1.0685209035873413
			],
			"type":"VEC3"
		},
		{
			"bufferView":28,
			"componentType":5126,
			"count":1793,
			"type":"VEC3"
		},
		{
			"bufferView":29,
			"componentType":5126,
			"count":1793,
			"type":"VEC2"
		},
		{
			"bufferView":30,
			"componentType":5126,
			"count":64,
			"max":[
				0.8258119821548462,
				-0.09334149956703186,
				0.8278594613075256
			],
			"min":[
				-0.8296463489532471,
				-0.12272009253501892,
				-0.8278594613075256
			],
			"type":"VEC3"
		},
		{
			"bufferView":31,
			"componentType":5126,
			"count":64,
			"type":"VEC3"
		},
		{
			"bufferView":32,
			"componentType":5126,
			"count":64,
			"type":"VEC2"
		},
		{
			"bufferView":33,
			"componentType":5126,
			"count":2164,
			"max":[
				3.949125051498413,
				0.831762433052063,
				1.065564751625061
			],
			"min":[
				-3.0306334495544434,
				-1.1497609615325928,
				-1.065564751625061
			],
			"type":"VEC3"
		},
		{
			"bufferView":34,
			"componentType":5126,
			"count":2164,
			"type":"VEC3"
		},
		{
			"bufferView":35,
			"componentType":5126,
			"count":2164,
			"type":"VEC2"
		},
		{
			"bufferView":36,
			"componentType":5123,
			"count":4980,
			"type":"SCALAR"
		},
		{
			"bufferView":37,
			"componentType":5126,
			"count":96,
			"max":[
				0.5627821683883667,
				0.7952165603637695,
				0.8332724571228027
			],
			"min":[
				-0.8442400097846985,
				0.30458512902259827,
				-0.8332724571228027
			],
			"type":"VEC3"
		},
		{
			"bufferView":38,
			"componentType":5126,
			"count":96,
			"type":"VEC3"
		},
		{
			"bufferView":39,
			"componentType":5126,
			"count":96,
			"type":"VEC2"
		},
		{
			"bufferView":40,
			"componentType":5123,
			"count":258,
			"type":"SCALAR"
		},
		{
			"bufferView":41,
			"componentType":5126,
			"count":14,
			"max":[
				-2.4065134525299072,
				0.4676584005355835,
				0.624386727809906
			],
			"min":[
				-2.638582944869995,
				0.357319176197052,
				-0.624386727809906
			],
			"type":"VEC3"
		},
		{
			"bufferView":42,
			"componentType":5126,
			"count":14,
			"type":"VEC3"
		},
		{
			"bufferView":43,
			"componentType":5126,
			"count":14,
			"type":"VEC2"
		},
		{
			"bufferView":44,
			"componentType":5123,
			"count":24,
			"type":"SCALAR"
		},
		{
			"bufferView":45,
			"componentType":5126,
			"count":32,
			"max":[
				3.910778760910034,
				0.1924922615289688,
				0.5980582237243652
			],
			"min":[
				3.907266855239868,
				-0.783278226852417,
				-0.5980582237243652
			],
			"type":"VEC3"
		},
		{
			"bufferView":46,
			"componentType":5126,
			"count":32,
			"type":"VEC3"
		},
		{
			"bufferView":47,
			"componentType":5126,
			"count":32,
			"type":"VEC2"
		},
		{
			"bufferView":48,
			"componentType":5123,
			"count":84,
			"type":"SCALAR"
		},
		{
			"bufferView":49,
			"componentType":5126,
			"count":97,
			"max":[
				4
			],
			"min":[
				0
			],
			"type":"SCALAR"
		},
		{
			"bufferView":50,
			"componentType":5126,
			"count":97,
			"type":"VEC4"
		},
		{
			"bufferView":51,
			"componentType":5126,
			"count":97,
			"type":"VEC4"
		},
		{
			"bufferView":52,
			"componentType":5126,
			"count":97,
			"type":"VEC4"
		},
		{
			"bufferView":53,
			"componentType":5126,
			"count":97,
			"type":"VEC4"
		}
	],
	"bufferViews":[
		{
			"buffer":0,
			"byteLength":12624,
			"byteOffset":0,
			"target":34962
		},
		{
			"buffer":0,
			"byteLength":12624,
			"byteOffset":12624,
			"target":34962
		},
		{
			"buffer":0,
			"byteLength":8416,
			"byteOffset":25248,
			"target":34962
		},
		{
			"buffer":0,
			"byteLength":5184,
			"byteOffset":33664,
			"target":34963
		},
		{
			"buffer":0,
			"byteLength":576,
			"byteOffset":38848,
			"target":34962
		},
		{
			"buffer":0,
			"byteLength":576,
			"byteOffset":39424,
			"target":34962
		},
		{
			"buffer":0,
			"byteLength":384,
			"byteOffset":40000,
			"target":34962
		},
		{
			"buffer":0,
			"byteLength":264,
			"byteOffset":40384,
			"target":34963
		},
		{
			"buffer":0,
			"byteLength":624,
			"byteOffset":40648,
			"target":34962
		},
		{
			"buffer":0,
			"byteLength":624,
			"byteOffset":41272,
			"target":34962
		},
		{
			"buffer":0,
			"byteLength":416,
			"byteOffset":41896,
			"target":34962
		},
		{
			"buffer":0,
			"byteLength":240,
			"byteOffset":42312,
			"target":34963
		},
		{
			"buffer":0,
			"byteLength":21516,
			"byteOffset":42552,
			"target":34962
		},
		{
			"buffer":0,
			"byteLength":21516,
			"byteOffset":64068,
			"target":34962
		},
		{
			"buffer":0,
			"byteLength":14344,
			"byteOffset":85584,
			"target":34962
		},
		{
			"buffer":0,
			"byteLength":12660,
			"byteOffset":99928,
			"target":34963
		},
		{
			"buffer":0,
			"byteLength":768,
			"byteOffset":112588,
			"target":34962
		},
		{
			"buffer":0,
			"byteLength":768,
			"byteOffset":113356,
			"target":34962
		},
		{
			"buffer":0,
			"byteLength":512,
			"byteOffset":114124,
			"target":34962
		},
		{
			"buffer":0,
			"byteLength":384,
			"byteOffset":114636,
			"target":34963
		},
		{
			"buffer":0,
			"byteLength":21516,
			"byteOffset":115020,
			"target":34962
		},
		{
			"buffer":0,
			"byteLength":21516,
			"byteOffset":136536,
			"target":34962
		},
		{
			"buffer":0,
			"byteLength":14344,
			"byteOffset":158052,
			"target":34962
		},
		{
			"buffer":0,
			"byteLength":12660,
			"byteOffset":172396,
			"target":34963
		},
		{
			"buffer":0,
			"byteLength":768,
			"byteOffset":185056,
			"target":34962
		},
		{
			"buffer":0,
			"byteLength":768,
			"byteOffset":185824,
			"target":34962
		},
		{
			"buffer":0,
			"byteLength":512,
			"byteOffset":186592,
			"target":34962
		},
		{
			"buffer":0,
			"byteLength":21516,
			"byteOffset":187104,
			"target":34962
		},
		{
			"buffer":0,
			"byteLength":21516,
			"byteOffset":208620,
			"target":34962
		},
		{
			"buffer":0,
			"byteLength":14344,
			"byteOffset":230136,
			"target":34962
		},
		{
			"buffer":0,
			"byteLength":768,
			"byteOffset":244480,
			"target":34962
		},
		{
			"buffer":0,
			"byteLength":768,
			"byteOffset":245248,
			"target":34962
		},
		{
			"buffer":0,
			"byteLength":512,
			"byteOffset":246016,
			"target":34962
		},
		{
			"buffer":0,
			"byteLength":25968,
			"byteOffset":246528,
			"target":34962
		},
		{
			"buffer":0,
			"byteLength":25968,
			"byteOffset":272496,
			"target":34962
		},
		{
			"buffer":0,
			"byteLength":17312,
			"byteOffset":298464,
			"target":34962
		},
		{
			"buffer":0,
			"byteLength":9960,
			"byteOffset":315776,
			"target":34963
		},
		{
			"buffer":0,
			"byteLength":1152,
			"byteOffset":325736,
			"target":34962
		},
		{
			"buffer":0,
			"byteLength":1152,
			"byteOffset":326888,
			"target":34962
		},
		{
			"buffer":0,
			"byteLength":768,
			"byteOffset":328040,
			"target":34962
		},
		{
			"buffer":0,
			"byteLength":516,
			"byteOffset":328808,
			"target":34963
		},
		{
			"buffer":0,
			"byteLength":168,
			"byteOffset":329324,
			"target":34962
		},
		{
			"buffer":0,
			"byteLength":168,
			"byteOffset":329492,
			"target":34962
		},
		{
			"buffer":0,
			"byteLength":112,
			"byteOffset":329660,
			"target":34962
		},
		{
			"buffer":0,
			"byteLength":48,
			"byteOffset":329772,
			"target":34963
		},
		{
			"buffer":0,
			"byteLength":384,
			"byteOffset":329820,
			"target":34962
		},
		{
			"buffer":0,
			"byteLength":384,
			"byteOffset":330204,
			"target":34962
		},
		{
			"buffer":0,
			"byteLength":256,
			"byteOffset":330588,
			"target":34962
		},
		{
			"buffer":0,
			"byteLength":168,
			"byteOffset":330844,
			"target":34963
		},
		{
			"buffer":0,
			"byteLength":388,
			"byteOffset":331012
		},
		{
			"buffer":0,
			"byteLength":1552,
			"byteOffset":331400
		},
		{
			"buffer":0,
			"byteLength":1552,
			"byteOffset":332952
		},
		{
			"buffer":0,
			"byteLength":1552,
			"byteOffset":334504
		},
		{
			"buffer":0,
			"byteLength":1552,
			"byteOffset":336056
		}
	],
	"samplers":[
		{
			"magFilter":9729,
			"minFilter":9987
		}
	],
	"buffers":[
		{
			"byteLength":337608,
			"uri":"SpaceShip.bin"
		}
	]
}
